<?xml version="1.0" encoding="UTF-8"?>
<!DOCTYPE svg PUBLIC "-//W3C//DTD SVG 1.1//EN" "http://www.w3.org/Graphics/SVG/1.1/DTD/svg11.dtd">
<!-- Creator: CorelDRAW X5 -->
<svg xmlns="http://www.w3.org/2000/svg" xml:space="preserve" width="6.72in" height="6.72in" style="shape-rendering:geometricPrecision; text-rendering:geometricPrecision; image-rendering:optimizeQuality; fill-rule:evenodd; clip-rule:evenodd"
viewBox="0 0 6720 6720"
 xmlns:xlink="http://www.w3.org/1999/xlink">
 <defs>
  <style type="text/css">
   <![CDATA[
    .fil1 {fill:none}
    .fil0 {fill:black;fill-rule:nonzero}
   ]]>
  </style>
 </defs>
 <g id="Layer_x0020_1">
  <metadata id="CorelCorpID_0Corel-Layer"/>
  <g id="_375176344">
   <path class="fil0" d="M1560 1320l3622 0 33 0 23 23 137 137 23 23 0 33 0 3622 0 33 -23 23 -137 137 -23 23 -33 0 -3622 0 -33 0 -23 -23 -137 -137 -23 -23 0 -33 0 -3622 0 -33 23 -23 137 -137 23 -23 33 0zm3589 160l-3556 0 -90 90 0 3556 90 90 3556 0 90 -90 0 -3556 -90 -90z"/>
   <path class="fil0" d="M1904 1634c74,0 140,30 189,78 48,48 78,115 78,189 0,74 -30,140 -78,189 -48,48 -115,78 -189,78 -74,0 -140,-30 -189,-78 -48,-48 -78,-115 -78,-189 0,-74 30,-140 78,-189 48,-48 115,-78 189,-78zm76 191c-19,-19 -46,-31 -76,-31 -29,0 -56,12 -76,31 -19,19 -31,46 -31,76 0,29 12,56 31,76 19,19 46,31 76,31 29,0 56,-12 76,-31 19,-19 31,-46 31,-76 0,-29 -12,-56 -31,-76z"/>
   <path class="fil0" d="M2177 880c0,-44 -36,-80 -80,-80 -44,0 -80,36 -80,80l0 520c0,44 36,80 80,80 44,0 80,-36 80,-80l0 -520z"/>
   <path class="fil0" d="M2177 5320c0,-44 -36,-80 -80,-80 -44,0 -80,36 -80,80l0 520c0,44 36,80 80,80 44,0 80,-36 80,-80l0 -520z"/>
   <path class="fil0" d="M2784 880c0,-44 -36,-80 -80,-80 -44,0 -80,36 -80,80l0 520c0,44 36,80 80,80 44,0 80,-36 80,-80l0 -520z"/>
   <path class="fil0" d="M2784 5320c0,-44 -36,-80 -80,-80 -44,0 -80,36 -80,80l0 520c0,44 36,80 80,80 44,0 80,-36 80,-80l0 -520z"/>
   <path class="fil0" d="M3391 880c0,-44 -36,-80 -80,-80 -44,0 -80,36 -80,80l0 520c0,44 36,80 80,80 44,0 80,-36 80,-80l0 -520z"/>
   <path class="fil0" d="M3391 5320c0,-44 -36,-80 -80,-80 -44,0 -80,36 -80,80l0 520c0,44 36,80 80,80 44,0 80,-36 80,-80l0 -520z"/>
   <path class="fil0" d="M3998 880c0,-44 -36,-80 -80,-80 -44,0 -80,36 -80,80l0 520c0,44 36,80 80,80 44,0 80,-36 80,-80l0 -520z"/>
   <path class="fil0" d="M3998 5320c0,-44 -36,-80 -80,-80 -44,0 -80,36 -80,80l0 520c0,44 36,80 80,80 44,0 80,-36 80,-80l0 -520z"/>
   <path class="fil0" d="M4605 880c0,-44 -36,-80 -80,-80 -44,0 -80,36 -80,80l0 520c0,44 36,80 80,80 44,0 80,-36 80,-80l0 -520z"/>
   <path class="fil0" d="M4605 5320c0,-44 -36,-80 -80,-80 -44,0 -80,36 -80,80l0 520c0,44 36,80 80,80 44,0 80,-36 80,-80l0 -520z"/>
   <path class="fil0" d="M1387 2211c44,0 80,-36 80,-80 0,-44 -36,-80 -80,-80l-520 0c-44,0 -80,36 -80,80 0,44 36,80 80,80l520 0z"/>
   <path class="fil0" d="M1387 2818c44,0 80,-36 80,-80 0,-44 -36,-80 -80,-80l-520 0c-44,0 -80,36 -80,80 0,44 36,80 80,80l520 0z"/>
   <path class="fil0" d="M1387 3425c44,0 80,-36 80,-80 0,-44 -36,-80 -80,-80l-520 0c-44,0 -80,36 -80,80 0,44 36,80 80,80l520 0z"/>
   <path class="fil0" d="M1387 4032c44,0 80,-36 80,-80 0,-44 -36,-80 -80,-80l-520 0c-44,0 -80,36 -80,80 0,44 36,80 80,80l520 0z"/>
   <path class="fil0" d="M1387 4639c44,0 80,-36 80,-80 0,-44 -36,-80 -80,-80l-520 0c-44,0 -80,36 -80,80 0,44 36,80 80,80l520 0z"/>
   <path class="fil0" d="M5853 2211c44,0 80,-36 80,-80 0,-44 -36,-80 -80,-80l-520 0c-44,0 -80,36 -80,80 0,44 36,80 80,80l520 0z"/>
   <path class="fil0" d="M5853 2818c44,0 80,-36 80,-80 0,-44 -36,-80 -80,-80l-520 0c-44,0 -80,36 -80,80 0,44 36,80 80,80l520 0z"/>
   <path class="fil0" d="M5853 3425c44,0 80,-36 80,-80 0,-44 -36,-80 -80,-80l-520 0c-44,0 -80,36 -80,80 0,44 36,80 80,80l520 0z"/>
   <path class="fil0" d="M5853 4032c44,0 80,-36 80,-80 0,-44 -36,-80 -80,-80l-520 0c-44,0 -80,36 -80,80 0,44 36,80 80,80l520 0z"/>
   <path class="fil0" d="M5853 4639c44,0 80,-36 80,-80 0,-44 -36,-80 -80,-80l-520 0c-44,0 -80,36 -80,80 0,44 36,80 80,80l520 0z"/>
  </g>
 </g>
 <rect class="fil1" width="6720" height="6720"/>
</svg>
