<svg id="Capa_1" enable-background="new 0 0 512 512" height="512" viewBox="0 0 512 512" width="512" xmlns="http://www.w3.org/2000/svg"><g><path d="m391 497c0 8.28-6.72 15-15 15h-240c-8.28 0-15-6.72-15-15s6.72-15 15-15h30c8.27 0 15-6.73 15-15v-81h150v81c0 8.27 6.73 15 15 15h30c8.28 0 15 6.72 15 15z" fill="#eef9ff"/><path d="m391 497c0 8.28-6.72 15-15 15h-120v-126h75v81c0 8.27 6.73 15 15 15h30c8.28 0 15 6.72 15 15z" fill="#c4eaf5"/><path d="m497 0h-482c-8.284 0-15 6.716-15 15v361c0 8.284 6.716 15 15 15h482c8.284 0 15-6.716 15-15v-361c0-8.284-6.716-15-15-15z" fill="#093968"/><path d="m512 15v361c0 8.28-6.72 15-15 15h-241v-391h241c8.28 0 15 6.72 15 15z" fill="#001e49"/><path d="m30 30h452v332h-452z" fill="#5ca7e5"/><path d="m256 30h226v332h-226z" fill="#3187ce"/><path d="m271 113v34.91c-9.996-1.213-20.003-1.213-30 0v-34.91c0-8.28 6.72-15 15-15s15 6.72 15 15z" fill="#0d5493"/><path d="m271 113v34.91c-5-.61-10-.91-15-.91v-49c8.28 0 15 6.72 15 15z" fill="#093968"/><path d="m344.3 141.94-14.75 28.28c-8.03-5.33-16.88-10.16-26.52-14.02l14.67-28.14c3.83-7.34 12.89-10.19 20.24-6.36 7.34 3.83 10.19 12.89 6.36 20.24z" fill="#093968"/><path d="m208.97 156.2c-9.64 3.86-18.49 8.69-26.52 14.02l-14.75-28.28c-3.83-7.35-.98-16.41 6.36-20.24 7.35-3.83 16.41-.98 20.24 6.36z" fill="#0d5493"/><path d="m256 292c-58.82 0-99.269-46.243-113.929-66.125-3.894-5.281-3.904-12.479-.025-17.771 14.57-19.875 54.84-66.104 113.954-66.104 58.818 0 99.267 46.244 113.928 66.126 3.894 5.281 3.904 12.479.025 17.771-14.571 19.875-54.841 66.103-113.953 66.103z" fill="#eef9ff"/><path d="m369.95 225.9c-14.57 19.87-54.84 66.1-113.95 66.1v-150c58.82 0 99.27 46.24 113.93 66.13 3.89 5.28 3.9 12.48.02 17.77z" fill="#c4eaf5"/><circle cx="256" cy="217" fill="#093968" r="46"/><path d="m302 217c0 25.36-20.64 46-46 46v-92c25.36 0 46 20.64 46 46z" fill="#001e49"/></g></svg>